<?xml version="1.0" encoding="UTF-8" standalone="no"?>
<!-- Created with Inkscape (http://www.inkscape.org/) -->

<svg
   width="1024"
   height="1024"
   version="1.1"
   viewBox="0 0 256 256"
   id="svg30"
   sodipodi:docname="logo.svg"
   inkscape:version="1.2 (dc2aedaf03, 2022-05-15)"
   xmlns:inkscape="http://www.inkscape.org/namespaces/inkscape"
   xmlns:sodipodi="http://sodipodi.sourceforge.net/DTD/sodipodi-0.dtd"
   xmlns="http://www.w3.org/2000/svg"
   xmlns:svg="http://www.w3.org/2000/svg"
   xmlns:rdf="http://www.w3.org/1999/02/22-rdf-syntax-ns#"
   xmlns:cc="http://creativecommons.org/ns#"
   xmlns:dc="http://purl.org/dc/elements/1.1/">
  <defs
     id="defs34" />
  <sodipodi:namedview
     id="namedview32"
     pagecolor="#505050"
     bordercolor="#eeeeee"
     borderopacity="1"
     inkscape:showpageshadow="0"
     inkscape:pageopacity="0"
     inkscape:pagecheckerboard="0"
     inkscape:deskcolor="#505050"
     showgrid="false"
     inkscape:zoom="0.79882812"
     inkscape:cx="513.87775"
     inkscape:cy="540.16626"
     inkscape:window-width="1920"
     inkscape:window-height="1001"
     inkscape:window-x="-9"
     inkscape:window-y="-9"
     inkscape:window-maximized="1"
     inkscape:current-layer="svg30" />
  <title
     id="title2">Mocha Icon</title>
  <path
     d="M -11.472817,176.13958 -161.37282,28.719584"
     fill="#f2f2f2"
     stroke-width="0.25164"
     id="path4" />
  <path
     d="m 50.697083,62.901584 25.904,191.959996 H 180.91108 l 26.94,-193.339996 z"
     fill="#aaffcc"
     stroke-width="0.25164"
     id="path6" />
  <rect
     x="43.444084"
     y="43.251587"
     width="170.28"
     height="18.643999"
     fill="#333333"
     stroke-width="0.25664"
     id="rect8" />
  <g
     fill="#1c241c"
     stroke-width="0.25164"
     id="g16"
     transform="translate(-2.6259169,3.1295844)">
    <path
       d="m 137.85,152.84 c -0.53256,-1.5425 -1.4136,-2.9458 -2.4338,-4.2099 -1.3197,-1.4101 -2.8674,-2.0141 -4.7661,-2.8488 -0.54511,-0.23966 -2.0169,0.18626 -2.5589,0.30786 -2.1424,0.52974 -3.722,1.7367 -5.2534,3.2578 -0.74216,0.90871 -1.4388,1.9045 -1.9237,2.98 -0.33639,0.7462 -0.4502,1.2132 -0.69025,2.0006 -0.59596,1.8544 -0.93744,3.7617 -1.0737,5.7004 -0.13661,1.6684 -0.12104,3.3371 0.0766,4.9985 0.17242,1.1416 0.54613,2.225 1.0772,3.2459 1.4737,2.2352 3.9661,2.7159 6.3452,2.91 2.0554,0.19018 4.0906,-0.0966 6.0792,-0.59699 1.6395,-0.38325 3.1141,-1.1664 4.5812,-1.9584 0.97142,-0.59212 1.8771,-1.3608 2.6259,-2.2211 0.0811,-0.13748 0.16206,-0.27497 0.2431,-0.41245 l -3.2091,-1.8542 c -0.0689,0.11898 -0.13766,0.23796 -0.20648,0.35694 -0.70873,0.8425 -1.5766,1.5704 -2.5231,2.1311 -1.4106,0.80725 -2.8564,1.556 -4.4534,1.9271 -1.9777,0.46468 -3.9993,0.71747 -6.0313,0.48242 -0.61303,-0.0711 -1.1084,-0.10614 -1.7039,-0.25623 -0.20142,-0.0508 -0.76354,-0.31333 -0.59095,-0.19775 5.1039,3.4178 3.0822,2.0398 2.2307,1.1979 -0.60908,-0.9611 -0.96459,-2.0398 -1.2067,-3.1474 -0.22943,-1.6426 -0.24903,-3.294 -0.13923,-4.9488 0.14364,-1.9122 0.41346,-3.812 1.0071,-5.6435 0.55175,-1.7532 1.3389,-3.4162 2.5578,-4.8136 1.5076,-1.5397 2.9763,-2.6112 5.1288,-3.0862 0.67036,-0.12097 1.1188,-0.24023 1.7973,-0.22205 0.24077,0.007 0.90111,0.24817 0.71649,0.0936 -0.7667,-0.64203 -1.6869,-1.0747 -2.5301,-1.6123 -0.17788,-0.11339 0.36696,0.2108 0.53395,0.33967 0.18614,0.14366 0.34766,0.31662 0.52148,0.47493 1.0382,1.174 1.8765,2.4961 2.4156,3.9751 l 3.3566,1.6501 z"
       id="path10" />
    <path
       d="m 128.03,181.75 c 0.64601,1.3684 0.78201,2.8858 0.91737,4.3719 0.11097,1.4068 0.10499,2.8314 -0.17205,4.2206 -0.16758,0.8403 -0.38858,1.4805 -0.64111,2.2984 -0.86148,2.3955 -2.0633,4.6484 -3.2297,6.905 -1.2445,2.2584 -2.5524,4.4811 -3.7287,6.7766 -0.59491,1.4182 -1.2951,2.7915 -1.8577,4.2225 -0.31277,1.1523 -0.97012,2.1668 -1.3678,3.2816 -0.40336,1.3698 -0.33904,0.93398 3.3832,1.8998 0.27197,0.0706 0.30211,-0.47365 0.45144,-0.71158 0.9406,-1.4988 1.8858,-2.9944 2.8212,-4.4965 1.9954,-3.3344 3.8594,-6.748 5.9876,-10.001 0.15374,-0.20924 0.9269,-1.3155 1.2249,-1.5493 0.11789,-0.0925 0.28282,-0.17622 0.42775,-0.13819 0.14017,0.0368 0.42149,0.3812 0.28757,0.32588 -0.96567,-0.39898 -1.8012,-1.133 -2.8185,-1.3716 -0.26734,-0.0627 0.18443,0.51709 0.27664,0.77564 0.52064,2.3622 0.49607,4.8043 0.52715,7.2113 0.0225,2.4628 -0.0895,4.9362 0.3847,7.364 0.2159,0.76883 0.47352,1.6316 1.2274,2.0474 3.7044,2.0433 2.3562,1.8101 4.3762,2.0374 0.88786,-0.10159 1.9425,-0.0479 2.6862,-0.63992 0.19132,-0.15231 0.33273,-0.35841 0.4991,-0.53762 l -3.119,-1.9054 c -0.14927,0.14411 -0.27831,0.31266 -0.44783,0.43233 -0.71679,0.506 -1.719,0.44288 -2.5448,0.45464 -0.21469,-0.0436 -0.81954,-0.26219 -0.6441,-0.13101 0.82695,0.61837 1.7699,1.0648 2.6389,1.6226 0.14047,0.0901 -0.31296,-0.1239 -0.45087,-0.21793 -0.54999,-0.37499 -0.76888,-1.0039 -0.9823,-1.6008 -0.59341,-2.4029 -0.50313,-4.8777 -0.49781,-7.338 -0.0182,-2.4169 0.0106,-4.858 -0.38221,-7.2489 -0.49693,-2.1354 -0.0368,-0.99575 -3.6307,-3.2673 -0.13459,-0.0851 -0.32315,-0.0854 -0.476,-0.0408 -0.79243,0.23152 -1.0789,1.4571 -1.5762,1.9621 -1.9849,3.3382 -3.8091,6.77 -5.861,10.07 -1.0003,1.508 -1.1772,1.8155 -2.209,3.2232 -0.27423,0.37412 -0.55147,0.74643 -0.84363,1.1067 -0.16207,0.19986 -0.7002,0.39072 -0.51797,0.5724 3.5603,3.5498 3.4141,3.1321 3.0645,1.8759 0.28531,-1.1421 1.0068,-2.14 1.3022,-3.2866 0.54757,-1.429 1.2166,-2.8063 1.7805,-4.2288 1.1109,-2.3266 2.3336,-4.594 3.6396,-6.8172 1.211,-2.2571 2.4318,-4.5221 3.3006,-6.9386 0.70811,-2.245 1.1768,-4.2425 0.9125,-6.6197 -0.0966,-1.4824 -0.19126,-2.9875 -0.70908,-4.3949 l -3.409,-1.576 z"
       id="path12" />
    <path
       d="m 137.76,228.81 c -1.4724,-0.952 -2.8982,-1.9708 -4.3271,-2.9858 -1.5829,-1.0471 -1.9047,-1.2809 -4.3981,-2.5638 -0.19661,-0.10115 -0.43126,-0.15869 -0.65052,-0.12998 -0.95101,0.12452 -2.1465,1.153 -2.9016,1.6805 -2.0228,1.5999 -3.8109,3.5008 -5.4302,5.5036 -1.1905,1.5026 -1.8806,2.6863 -2.2457,4.5622 -0.20145,1.3562 0.30334,2.5074 1.2849,3.4181 1.2104,0.69671 2.3814,1.4671 3.6313,2.0901 0.29899,0.14903 1.3328,0.055 1.591,0.0177 1.2383,-0.1786 2.3948,-0.64643 3.5625,-1.0715 2.8551,-1.0452 4.6388,-2.752 6.5658,-5.0213 1.7659,-1.9763 2.6508,-4.5152 4.0873,-6.6968 0.0796,-0.0672 0.13695,-0.22334 0.23895,-0.20176 0.0827,0.0175 0.082,0.28863 0.005,0.25339 -1.0798,-0.49531 -2.0229,-1.2791 -3.1375,-1.6902 -0.16571,-0.0611 -2.5e-4,0.35324 -0.009,0.52961 -0.0309,0.64701 -0.0579,0.74083 -0.14494,1.399 -0.19947,1.6151 -0.52854,3.2101 -0.73583,4.8238 -0.16533,1.0226 -0.15323,2.0397 0.0933,3.0447 0.14439,0.4232 0.32748,0.9306 0.74206,1.1718 3.5044,2.0385 2.177,1.8798 4.0144,1.9941 0.27615,0.0119 1.1181,0.0652 1.3889,0.006 1.2426,-0.27127 2.0958,-1.4885 2.8893,-2.3545 l -2.922,-1.7868 c -1.5079,1.4224 -2.1784,2.2782 -4.3065,1.9197 -1.6091,-0.42421 -0.56697,-0.19805 2.4151,1.5834 0.0876,0.0524 -0.18861,-0.0808 -0.27433,-0.13628 -0.29637,-0.19176 -0.47057,-0.47372 -0.5901,-0.79927 -0.29424,-0.9678 -0.36237,-1.9392 -0.21319,-2.9463 0.173,-1.6172 0.44695,-3.218 0.71885,-4.8209 0.0196,-0.12116 0.28276,-1.9348 0.26888,-1.9477 -1.6407,-1.5235 -2.6191,-3.4025 -3.5972,-1.8633 -1.1743,2.3167 -2.1728,4.7448 -3.9056,6.728 -1.9045,2.1983 -3.711,3.8418 -6.4974,4.8491 -1.1766,0.40445 -2.3339,0.83425 -3.5882,0.91729 -0.2813,0.0186 -0.56614,0.0197 -0.84555,-0.0177 -0.23583,-0.0316 -0.88265,-0.3256 -0.68864,-0.18789 0.84264,0.5981 1.7747,1.0591 2.6621,1.5886 -1.0324,-0.72332 -1.6286,-1.7923 -1.4837,-3.0772 0.30801,-1.7722 0.9575,-3.0308 2.0685,-4.4587 1.5786,-1.9911 3.3285,-3.8846 5.3576,-5.4241 0.80781,-0.53236 1.7942,-1.3846 2.8402,-1.3518 0.20466,0.007 0.75481,0.30135 0.58519,0.1867 -0.79656,-0.53842 -1.6501,-0.9876 -2.4823,-1.469 -0.23348,-0.13507 0.45712,0.28649 0.68568,0.42974 1.4015,0.97151 2.7919,1.9638 4.1774,2.9556 l 3.5004,1.3499 z"
       id="path14" />
  </g>
  <path
     d="m 50.007083,61.894584 7.944,55.239996 c 0,0 5.3783,4.0943 11.398,-4.143 9.3106,-12.741 29.012997,8.2861 29.012997,8.2861 0,0 -10.562997,15.294 -0.34539,0.34525 11.144,-16.304 29.013,-4.8335 29.013,-4.8335 0,0 13.502,19.295 29.358,-8.6313 7.2532,-12.773996 18.306,6.9051 18.306,6.9051 0,0 -0.34539,8.9766 11.052,-1.381 11.398,-10.358 13.47,11.393 13.47,11.393 l 8.6348,-63.180996 z"
     fill="#ffffff"
     id="path18"
     style="stroke-width:0.25164" />
  <path
     d="m 124.63408,120.75958 c -1.228,0.23133 -2.4815,0.59839 -3.5301,1.3027 -0.27362,0.18378 -0.51677,0.40927 -0.77516,0.61391 -1.4881,1.2818 -2.2242,3.0402 -2.874,4.8407 -0.64136,1.8724 -0.84464,3.8374 -0.9587,5.8006 -0.0634,1.5582 -0.16478,3.1301 0.32054,4.6313 0.29297,0.52678 0.68967,0.99576 1.2186,1.303 2.6495,1.5392 3.3193,2.1005 5.7217,2.7182 0.99893,0.19229 1.9946,0.54482 3.0285,0.3752 1.4282,-0.23429 2.7191,-0.98678 3.9627,-1.6709 1.7776,-1.0896 3.3732,-2.4166 4.5645,-4.1421 0.70107,-1.0153 1.0024,-1.7062 1.5595,-2.8078 0.86072,-2.0441 1.7527,-4.2042 1.8768,-6.4522 0.0196,-0.35549 -0.0129,-0.71195 -0.0194,-1.0679 -0.20264,-1.9953 -1.4117,-3.5155 -2.8005,-4.8625 -1.4306,-1.2209 -3.0986,-2.0112 -4.7674,-2.9138 -0.45806,-0.24777 -0.93497,-0.21747 -1.4274,-0.15549 -1.0475,0.16466 -2.0317,0.56155 -3.0517,0.83357 -0.97432,0.2606 -1.8654,0.7417 -2.8068,1.0899 -0.32129,0.14768 -0.62986,0.29657 -0.92485,0.49075 l 3.1436,2.0223 c 0.27817,-0.16837 0.5661,-0.31364 0.86381,-0.44527 0.91177,-0.37536 1.7951,-0.83048 2.7551,-1.0781 1.0045,-0.28281 1.9918,-0.65156 3.0385,-0.75125 0.39888,0.002 0.42991,-0.0261 0.83464,0.10528 0.15374,0.0499 0.58438,0.27275 0.44741,0.18696 -5.0845,-3.1848 -2.502,-1.5146 -1.4519,-0.75729 1.4004,1.2593 2.6668,2.695 2.9579,4.6246 0.0181,0.34253 0.0623,0.68467 0.0543,1.0276 -0.0516,2.2199 -0.87832,4.3763 -1.7161,6.3956 -0.54291,1.0538 -0.86478,1.7686 -1.5442,2.7388 -1.1714,1.6726 -2.7326,2.9838 -4.476,4.028 -1.2647,0.64978 -2.525,1.3167 -3.9704,1.4554 -1.0075,0.0967 -1.9905,-0.2438 -2.9597,-0.44436 -0.34376,-0.10394 -0.69237,-0.193 -1.0313,-0.31182 -0.29154,-0.10223 -1.1091,-0.53048 -0.85794,-0.35062 0.76333,0.54665 1.6032,0.97769 2.4083,1.4609 0.12386,0.0744 -1.4405,-0.92306 -1.2952,-1.0903 -0.59175,-1.4437 -0.54891,-3.0005 -0.46023,-4.536 0.10068,-1.9303 0.26921,-3.8687 0.90197,-5.7103 0.64314,-1.728 1.3275,-3.4399 2.7749,-4.6656 0.24794,-0.18757 0.48032,-0.3977 0.74383,-0.56273 1.0204,-0.63907 2.3136,-1.0572 3.5184,-1.0009 l -2.9965,-2.2679 z"
     fill="#1c241c"
     id="path20"
     style="stroke-width:0.25164" />
  <path
     d="m 97.326083,110.04958 c 1.783797,0.57629 3.641597,0.86748 5.491397,1.1391 3.9091,0.13584 5.9605,-1.7055 8.6938,-4.2337 2.1785,-2.1715 4.1505,-4.5682 5.7242,-7.217196 0.85846,-1.445 1.3413,-2.5181 2.0731,-4.0244 0.29493,-0.67632 0.61249,-1.3432 0.88478,-2.029 0.39692,-0.99966 1.2589,-3.5458 1.5959,-4.543 0.76421,-2.2611 1.488,-4.5304 2.1796,-6.8146 0.51529,-1.6662 1.0272,-3.3342 1.4868,-5.0168 0.21647,-0.79243 0.39876,-1.5902 0.65733,-2.37 0.0227,0.0028 0.0455,0.0055 0.0683,0.0083 -1.0814,-0.47794 -2.0817,-1.2183 -3.2443,-1.4338 -0.27866,-0.05166 0.0639,0.56345 0.0762,0.84648 0.0191,0.43948 0.0192,0.87968 0.0179,1.3196 -0.003,1.0106 -0.0471,2.3079 -0.0758,3.3114 -0.0619,3.2886 -0.27279,6.5708 -0.42288,9.8558 -0.18819,2.8282 -0.13688,5.651 0.0734,8.4744 0.21852,2.1229 0.57319,4.237796 1.2146,6.275296 0.87515,2.5715 1.3715,3.388 4.867,4.0209 0.35835,0.0649 0.48582,-0.54249 0.72873,-0.81373 2.3484,-3.7078 4.3402,-7.631296 6.3008,-11.553996 1.6177,-3.1059 2.7951,-6.4065 4.064,-9.6621 0.70232,-1.7398 1.0928,-3.5803 1.6766,-5.3583 0.35289,-0.85484 0.51066,-1.8068 0.92524,-2.6374 0.0469,-0.09386 0.0788,-0.25678 0.18365,-0.2556 0.0906,0.001 0.0554,0.1724 0.0831,0.2586 -0.99788,-0.50718 -1.9212,-1.2007 -2.9936,-1.5215 -0.23662,-0.07079 0.17982,0.46091 0.24445,0.6992 0.089,0.32835 0.14941,0.66388 0.21572,0.99756 0.25081,1.2622 0.45737,2.5322 0.65239,3.8039 0.35305,2.4715 0.45798,4.9665 0.5371,7.4586 0.0657,2.2437 0.028,4.4881 0.025,6.7322 0.0212,2.395 -0.0349,4.791896 0.13578,7.182096 0.0773,1.6188 0.37457,2.8438 1.5386,3.9985 3.057,2.2475 4.1428,2.5054 7.2749,2.6006 1.6846,0.13887 3.2781,-0.40276 4.8203,-1.0153 1.0856,-0.52784 2.1698,-1.1054 3.0873,-1.8977 0.40527,-0.29203 0.71456,-0.64765 0.93198,-1.0935 l -3.2664,-1.8366 c -0.15251,0.41328 -0.47459,0.69641 -0.80925,0.97288 -0.87835,0.75962 -1.911,1.3337 -2.9516,1.839 -1.519,0.59874 -3.0884,1.0292 -4.7382,0.88838 -0.77012,-0.0382 -1.5457,-0.0662 -2.305,-0.21416 -0.23192,-0.0452 -0.87723,-0.31164 -0.68813,-0.17002 1.1979,0.89705 3.7522,2.1791 2.0474,1.3118 -1.2807,-1.0107 -1.6223,-2.2014 -1.7597,-3.7978 -0.24407,-2.3766 -0.13855,-4.758796 -0.13043,-7.144296 0.002,-2.2508 -0.0233,-4.5017 -0.0425,-6.7523 -0.0571,-2.5162 -0.25197,-5.0262 -0.57543,-7.5228 -0.16693,-1.2635 -0.3691,-2.517 -0.56514,-3.776 -0.0519,-0.33335 -0.0889,-0.66903 -0.14668,-1.0014 -0.0426,-0.24506 0.0346,-0.56801 -0.15413,-0.73009 -1.0309,-0.88529 -2.2461,-1.5303 -3.3692,-2.2955 -0.10731,0.05153 -0.23723,0.07097 -0.32192,0.15459 -0.1569,0.15494 -0.30585,0.72499 -0.35421,0.87446 -0.23164,0.71594 -0.48296,1.4249 -0.70801,2.143 -0.5822,1.782 -0.94133,3.6312 -1.5734,5.3989 -1.171,3.2903 -2.2912,6.6097 -3.8365,9.7497 -1.9168,3.8958 -3.8804,7.821996 -6.5062,11.297996 -1.5694,1.3008 -0.99736,0.43693 2.0245,2.4797 0.12275,0.083 -0.25763,-0.15563 -0.35541,-0.26694 -0.49282,-0.56104 -0.68366,-1.3495 -0.96283,-2.0173 -0.68849,-2.0156 -1.0458,-4.1267 -1.322,-6.234696 -0.25394,-2.8169 -0.29065,-5.6319 -0.13592,-8.4576 0.12631,-3.2919 0.32079,-6.5808 0.39103,-9.8747 0.0647,-1.5226 0.15696,-3.0419 0.23867,-4.5634 0.0148,-0.27644 0.23657,-0.64377 0.0316,-0.82992 -0.98043,-0.89031 -2.1858,-1.5006 -3.3309,-2.1661 -0.0577,-0.03357 -0.0543,0.12202 -0.0815,0.18303 -0.45563,2.5528 -1.0374,5.0793 -1.7898,7.5627 -1.312,4.5193 -2.7418,9.0245 -4.6437,13.335 -0.76558,1.5947 -1.141,2.4649 -2.0462,3.9933 -1.557,2.629096 -3.4925,5.018796 -5.6982,7.130496 -2.7695,2.4371 -4.8367,4.1297 -8.6939,3.8668 -1.9053,-0.29462 -3.811097,-0.63944 -5.623297,-1.3186 l 2.9593,2.2981 z"
     fill="#1c241c"
     id="path22"
     style="stroke-width:0.25164" />
  <path
     d="m 143.60933,32.624243 -41.02782,7.191852 33.1918,-33.7000087 16.49363,14.2660667 z"
     fill="#ffffff"
     id="path24"
     style="stroke-width:0.25164" />
  <metadata
     id="metadata28">
    <rdf:RDF>
      <cc:License
         rdf:about="http://creativecommons.org/licenses/by-nc-sa/4.0/">
        <cc:permits
           rdf:resource="http://creativecommons.org/ns#Reproduction" />
        <cc:permits
           rdf:resource="http://creativecommons.org/ns#Distribution" />
        <cc:requires
           rdf:resource="http://creativecommons.org/ns#Notice" />
        <cc:requires
           rdf:resource="http://creativecommons.org/ns#Attribution" />
        <cc:prohibits
           rdf:resource="http://creativecommons.org/ns#CommercialUse" />
        <cc:permits
           rdf:resource="http://creativecommons.org/ns#DerivativeWorks" />
        <cc:requires
           rdf:resource="http://creativecommons.org/ns#ShareAlike" />
      </cc:License>
      <cc:Work
         rdf:about="">
        <cc:license
           rdf:resource="http://creativecommons.org/licenses/by-nc-sa/4.0/" />
        <dc:title>Mocha Icon</dc:title>
        <dc:date>2023-01-13</dc:date>
        <dc:creator>
          <cc:Agent>
            <dc:title>Winterreisender</dc:title>
          </cc:Agent>
        </dc:creator>
        <dc:rights>
          <cc:Agent>
            <dc:title>Winterreisender</dc:title>
          </cc:Agent>
        </dc:rights>
        <dc:publisher>
          <cc:Agent>
            <dc:title>Winterreisender</dc:title>
          </cc:Agent>
        </dc:publisher>
      </cc:Work>
    </rdf:RDF>
  </metadata>
</svg>
